<?xml version="1.0" encoding="utf-8"?>
<!-- Generator: Adobe Illustrator 26.3.1, SVG Export Plug-In . SVG Version: 6.00 Build 0)  -->
<svg version="1.1" id="Capa_1" xmlns="http://www.w3.org/2000/svg" xmlns:xlink="http://www.w3.org/1999/xlink" x="0px" y="0px"
	 viewBox="0 0 1100 400" style="enable-background:new 0 0 1100 400;" xml:space="preserve">
<style type="text/css">
	.st0{fill:#030C11;}
	.st1{fill:#007EA9;}
	.st2{fill:#7C7F80;}
</style>
<g>
	<g>
		<path class="st0" d="M285.1,22.6h102.5c27.5,0,49.2,7.9,62.9,21.3c10,10.3,15.5,23,15.5,38.5v0.7c0,31.3-19.3,47.4-38.2,55.7
			c28.5,8.6,51.6,25.1,51.6,58.1v0.7c0,41.3-34.7,65.7-87.3,65.7H285.1L285.1,22.6L285.1,22.6z M438.4,86.3
			c0-23.7-18.9-39.2-53.3-39.2h-73.2v82.9h71.2c32.7,0,55.4-14.8,55.4-43V86.3z M387.9,154h-76v84.9h80.8c36.4,0,59.1-16.2,59.1-43
			v-0.7C451.8,169.1,429.8,154,387.9,154"/>
		<path class="st0" d="M513,169.4v-0.7c0-52,36.6-93.9,86.5-93.9c53.4,0,84.1,42.6,84.1,95.3c0,3.5,0,5.6-0.4,8.7H540.2
			c3.8,39.1,31.4,61.1,63.5,61.1c24.8,0,42.2-10.1,56.9-25.5l16.8,15c-18.2,20.2-40.1,33.9-74.3,33.9
			C553.5,263.3,513,225.3,513,169.4 M656.5,159c-2.8-32.8-21.6-61.4-57.6-61.4c-31.4,0-55.1,26.2-58.6,61.4
			C540.2,159,656.5,159,656.5,159z"/>
		<path class="st0" d="M709.5,237.8l13.6-19.2c19.5,14.7,41.2,23,62.5,23c21.6,0,37.3-11.2,37.3-28.6v-0.7c0-18.2-21.3-25.1-45-31.8
			c-28.3-8-59.7-17.8-59.7-51v-0.7c0-31.1,25.8-51.7,61.4-51.7c22,0,46.4,7.7,64.9,19.9l-12.2,20.2c-16.8-10.8-35.9-17.5-53.4-17.5
			c-21.3,0-34.9,11.2-34.9,26.2v0.7c0,17.1,22.3,23.7,46.4,31c27.9,8.4,57.9,19.2,57.9,51.6v0.7c0,34.2-28.3,54.1-64.2,54.1
			C758.3,264.3,729.7,254.2,709.5,237.8"/>
		<path class="st0" d="M904.2,212.4V103.5h-25.1V79.7h25.1V22.6h26.9v57.1h57.2v23.7h-57.2v105.4c0,22,12.2,30,30.4,30
			c9.1,0,16.8-1.8,26.2-6.3v23c-9.4,4.9-19.5,7.7-32.5,7.7C926.2,263.3,904.2,249,904.2,212.4"/>
		<g>
			<polygon class="st1" points="122.9,263.3 233.8,263.3 122.9,62.2 			"/>
			<polygon class="st1" points="250.6,22.6 139.7,22.6 250.6,223.7 			"/>
		</g>
		<rect x="51.3" y="80.7" class="st0" width="37.1" height="182.6"/>
		<rect x="51.3" y="22.6" class="st0" width="37.1" height="27.7"/>
		<rect x="1022.2" y="235.6" class="st0" width="27.7" height="27.7"/>
	</g>
	<g>
		<path class="st2" d="M79.6,336.8c6.2,5.9,6.4,15.7,0.4,21.9c-0.1,0.1-0.3,0.3-0.4,0.4c-3.8,2.9-8.5,4.4-13.2,4.1H54.6v14H50v-44.6
			h16.5C71.2,332.4,75.9,333.9,79.6,336.8 M76.3,356.2c2.4-2.1,3.7-5.1,3.5-8.3c0.2-3.2-1.1-6.2-3.5-8.3c-2.9-2.1-6.4-3.1-9.9-2.9
			H54.8v22.3h11.6C69.9,359.4,73.4,358.4,76.3,356.2"/>
		<path class="st2" d="M117.4,374.4c-3.4-2-6.2-4.7-8.3-8.1c-2-3.4-3-7.4-2.9-11.4c0-4,1-7.9,2.9-11.4c1.9-3.4,4.8-6.2,8.3-8.1
			c3.6-2,7.7-3,11.8-2.9c4.1,0,8.1,1,11.8,2.9c3.4,1.9,6.3,4.7,8.3,8.1c2,3.4,3.1,7.4,3.1,11.4c0.1,4-1,8-3.1,11.4
			c-2.1,3.3-4.9,6.1-8.3,8.1c-3.6,1.9-7.7,2.9-11.8,2.9C125,377.4,121,376.4,117.4,374.4 M138.6,370.9c2.8-1.5,5.1-3.8,6.6-6.6
			c3.3-5.9,3.3-13.1,0-19c-1.5-2.8-3.8-5.1-6.6-6.6c-5.9-3.3-13.1-3.3-19,0c-2.8,1.5-5.1,3.8-6.6,6.6c-3.3,5.9-3.3,13.1,0,19
			c1.5,2.8,3.8,5.1,6.6,6.6c2.9,1.7,6.2,2.5,9.5,2.5C132.4,373.2,135.7,372.3,138.6,370.9"/>
		<polygon class="st2" points="236.6,332.6 221.7,377.3 216.7,377.3 203.9,339.1 191.1,377.3 186.1,377.3 171.5,332.6 176.2,332.6 
			188.8,370.9 201.8,332.6 206.2,332.6 219.2,371.1 232,332.6 		"/>
		<polygon class="st2" points="290.9,373.1 290.9,377.3 259.9,377.3 259.9,332.6 290.1,332.6 290.1,336.6 264.4,336.6 264.4,352.5 
			287.2,352.5 287.2,356.6 264.4,356.6 264.4,373.1 		"/>
		<path class="st2" d="M346.7,377.3l-10.1-14.5c-1.2,0.2-2.3,0.2-3.5,0.2h-11.8v14.3h-4.5v-44.6H333c4.8-0.2,9.4,1.2,13.2,4.1
			c3.3,2.8,5,6.9,4.8,11.2c0.1,3.2-0.8,6.3-2.7,8.9c-1.8,2.5-4.5,4.3-7.4,5.2l10.7,15.3L346.7,377.3z M343.1,355.8
			c2.3-2.1,3.6-5.1,3.5-8.3c0.2-3.2-1.1-6.2-3.5-8.3c-2.9-2.1-6.4-3.1-9.9-2.9h-11.6v22.3h11.6C336.8,359,340.3,358,343.1,355.8"/>
		<polygon class="st2" points="408.2,373.1 408.2,377.3 377,377.3 377,332.6 407.2,332.6 407.2,336.6 381.8,336.6 381.8,352.5 
			404.5,352.5 404.5,356.6 381.8,356.6 381.8,373.1 		"/>
		<path class="st2" d="M434,332.6h17.8c4.2,0,8.4,0.9,12.2,2.9c3.5,1.8,6.3,4.5,8.3,7.8c3.9,7.2,3.9,15.9,0,23.1
			c-1.9,3.4-4.8,6.1-8.3,7.8c-3.8,1.9-7.9,2.9-12.2,2.9H434V332.6z M451.6,373.3c3.5,0.1,7-0.7,10.1-2.3c2.8-1.5,5.1-3.7,6.6-6.4
			c1.6-2.9,2.4-6.2,2.3-9.5c0-3.3-0.7-6.6-2.3-9.5c-1.6-2.7-3.9-4.9-6.6-6.4c-3.1-1.6-6.6-2.4-10.1-2.3h-13v36.6L451.6,373.3
			L451.6,373.3z"/>
		<path class="st2" d="M561.1,358.1c3.6,5,2.8,12-1.9,16.1c-2.7,2.1-6.8,3.1-12.4,3.1h-20.2v-44.6h19c4-0.2,8,0.8,11.4,2.9
			c4.5,3.6,5.4,9.9,2.3,14.7c-1.3,1.7-3,3.1-5,3.9C556.9,354.6,559.3,356,561.1,358.1 M531.3,336.4v16.3h14c2.9,0.2,5.8-0.5,8.3-2.1
			c3.3-2.6,3.9-7.4,1.2-10.7c-0.4-0.5-0.8-0.9-1.2-1.2c-2.5-1.6-5.4-2.3-8.3-2.1L531.3,336.4L531.3,336.4z M555.7,371.3
			c2.1-1.4,3.3-3.9,3.1-6.4c0-5.6-3.9-8.5-12-8.5h-15.5v16.7h15.5C549.9,373.4,553,372.8,555.7,371.3"/>
		<polygon class="st2" points="603,361.8 603,377.3 598.5,377.3 598.5,361.8 580.9,332.6 585.9,332.6 600.9,357.6 616,332.6 
			620.6,332.6 		"/>
		<path class="st2" d="M671.6,376c-2.6-0.8-5-2.2-7-4.1l1.9-3.7c1.8,1.8,4,3.1,6.4,3.9c2.6,1,5.3,1.5,8.1,1.4
			c3.1,0.2,6.2-0.6,8.9-2.3c1.9-1.3,3-3.5,2.9-5.8c0-1.6-0.6-3.2-1.7-4.3c-1.1-1.1-2.5-2-3.9-2.5c-2.1-0.8-4.2-1.4-6.4-1.9
			c-2.7-0.6-5.3-1.4-7.8-2.5c-1.9-0.8-3.6-2.1-5-3.7c-1.5-1.8-2.2-4.1-2.1-6.4c-0.1-2.1,0.6-4.3,1.9-6c1.3-2,3.2-3.5,5.4-4.3
			c2.9-1.2,6-1.7,9.1-1.7c2.5,0,5,0.4,7.4,1c2.2,0.5,4.3,1.5,6.2,2.9l-1.7,3.7c-1.8-1.2-3.9-2.1-6-2.7c-2-0.6-4.1-1-6.2-1
			c-3.1-0.2-6.1,0.6-8.7,2.3c-1.8,1.4-2.9,3.5-2.9,5.8c-0.1,1.6,0.5,3.2,1.7,4.3c1.1,1.1,2.5,1.9,3.9,2.5c2.1,0.8,4.2,1.4,6.4,1.9
			c2.7,0.6,5.3,1.5,7.8,2.5c1.9,0.8,3.6,2,5,3.5c1.4,1.7,2.2,3.9,2.1,6.2c0.1,2.1-0.6,4.3-1.9,6c-1.3,1.9-3.2,3.4-5.4,4.3
			c-2.9,1.1-6,1.7-9.1,1.7C677.7,377.5,674.6,377.1,671.6,376"/>
		<polygon class="st2" points="753.4,373.1 753.4,377.3 722.4,377.3 722.4,332.6 752.4,332.6 752.4,336.6 726.9,336.6 726.9,352.5 
			749.7,352.5 749.7,356.6 726.9,356.6 726.9,373.1 		"/>
		<path class="st2" d="M809.2,377.1L799,362.8c-1.2,0.2-2.3,0.2-3.5,0.2H784v14.3h-4.5v-44.6h16.5c4.8-0.2,9.4,1.2,13.2,4.1
			c3.3,2.8,5,6.9,4.8,11.2c0.1,3.2-0.8,6.3-2.7,8.9c-1.8,2.5-4.5,4.3-7.4,5.2l10.7,15.3L809.2,377.1L809.2,377.1z M805.4,355.8
			c2.3-2.1,3.6-5.1,3.5-8.3c0.2-3.2-1.1-6.2-3.5-8.3c-2.9-2.1-6.4-3.1-9.9-2.9H784v22.3h11.6C799.1,359.1,802.7,358,805.4,355.8"/>
		<polygon class="st2" points="876.1,332.6 856.5,377.3 851.9,377.3 832.5,332.6 837.7,332.6 854.4,371.3 871.3,332.6 		"/>
		<polygon class="st2" points="933.9,332.6 933.9,377.3 930.2,377.3 901.9,340.9 901.9,377.3 897.4,377.3 897.4,332.6 901.1,332.6 
			929.4,368.8 929.4,332.6 		"/>
		<polygon class="st2" points="996.3,373.1 996.3,377.3 965.3,377.3 965.3,332.6 995.5,332.6 995.5,336.6 969.9,336.6 969.9,352.5 
			992.6,352.5 992.6,356.6 969.9,356.6 969.9,373.1 		"/>
		<polygon class="st2" points="1030,336.6 1014.5,336.6 1014.5,332.6 1050,332.6 1050,336.6 1034.5,336.6 1034.5,377.3 1030,377.3 
					"/>
	</g>
</g>
</svg>
